<?xml version="1.0" encoding="utf-8"?>
<!-- Generator: Adobe Illustrator 22.1.0, SVG Export Plug-In . SVG Version: 6.00 Build 0)  -->
<svg version="1.1" id="Layer_1" xmlns="http://www.w3.org/2000/svg" xmlns:xlink="http://www.w3.org/1999/xlink" x="0px" y="0px"
	 viewBox="0 0 416.5 539" style="enable-background:new 0 0 416.5 539;" xml:space="preserve">
<style type="text/css">
	.st0{fill:url(#SVGID_1_);}
	.st1{fill:url(#SVGID_2_);}
	.st2{fill:url(#SVGID_3_);}
	.st3{fill:url(#SVGID_4_);}
	.st4{fill:url(#SVGID_5_);}
	.st5{fill:url(#SVGID_6_);}
	.st6{fill:url(#SVGID_7_);}
	.st7{fill:url(#SVGID_8_);}
	.st8{opacity:0.15;}
	.st9{fill:url(#SVGID_9_);}
</style>
<g>
	<linearGradient id="SVGID_1_" gradientUnits="userSpaceOnUse" x1="125.6238" y1="489.8391" x2="125.6238" y2="433.0581">
		<stop  offset="0" style="stop-color:#5B4FB5"/>
		<stop  offset="1" style="stop-color:#A329BC"/>
	</linearGradient>
	<path class="st0" d="M114.2,489.8h-8.7v-56.8h12.5l8.1,40.7l7.8-40.7h12v56.8h-8.7v-35.7l-7.5,35.7h-7l-8.4-35.6V489.8z"/>
	<linearGradient id="SVGID_2_" gradientUnits="userSpaceOnUse" x1="166.0108" y1="489.8391" x2="166.0108" y2="433.0581">
		<stop  offset="0" style="stop-color:#5B4FB5"/>
		<stop  offset="1" style="stop-color:#A329BC"/>
	</linearGradient>
	<path class="st1" d="M153.6,489.8v-56.8h24.8v8.6h-16.1v15.6h11.7v8.6h-11.7v15.5h16.1v8.6H153.6z"/>
	<linearGradient id="SVGID_3_" gradientUnits="userSpaceOnUse" x1="198.9751" y1="489.8391" x2="198.9751" y2="433.0581">
		<stop  offset="0" style="stop-color:#5B4FB5"/>
		<stop  offset="1" style="stop-color:#A329BC"/>
	</linearGradient>
	<path class="st2" d="M198.1,433.1c4.9,0,8.4,1.3,10.7,4c2,2.3,3,5.5,3,9.6v8.2c0,4-1.5,7.4-4.6,10.2l6.4,24.8h-9.4l-5.3-21.4
		c-0.3,0-0.5,0-0.8,0h-5v21.4h-8.7v-56.8H198.1z M203.3,446.8c0-3.3-1.7-4.9-5-4.9h-5.2V460h5.2c1.4,0,2.6-0.5,3.5-1.4
		c1-1,1.4-2.1,1.4-3.5V446.8z"/>
	<linearGradient id="SVGID_4_" gradientUnits="userSpaceOnUse" x1="233.3323" y1="490.5552" x2="233.3323" y2="432.342">
		<stop  offset="0" style="stop-color:#5B4FB5"/>
		<stop  offset="1" style="stop-color:#A329BC"/>
	</linearGradient>
	<path class="st3" d="M233.3,490.6c-3.8,0-7.1-1.3-9.8-4c-2.7-2.6-4-5.8-4-9.6v-31.1c0-3.8,1.4-7,4.1-9.6c2.7-2.6,6-4,9.7-4
		c3.8,0,7.1,1.3,9.8,4c2.7,2.7,4,5.9,4,9.6v6.5h-9v-6.6c0-1.4-0.5-2.5-1.5-3.5c-1-1-2.2-1.4-3.6-1.4c-1.4,0-2.5,0.5-3.5,1.4
		c-1,1-1.5,2.1-1.5,3.5v31.2c0,1.4,0.5,2.5,1.5,3.5s2.1,1.4,3.5,1.4c1.4,0,2.6-0.5,3.6-1.4c1-1,1.5-2.1,1.5-3.5v-7.8h9v7.9
		c0,3.8-1.4,7-4.1,9.6C240.4,489.2,237.1,490.6,233.3,490.6z"/>
	<linearGradient id="SVGID_5_" gradientUnits="userSpaceOnUse" x1="258.5899" y1="489.8391" x2="258.5899" y2="433.0581">
		<stop  offset="0" style="stop-color:#5B4FB5"/>
		<stop  offset="1" style="stop-color:#A329BC"/>
	</linearGradient>
	<path class="st4" d="M262.9,489.8h-8.7v-56.8h8.7V489.8z"/>
	<linearGradient id="SVGID_6_" gradientUnits="userSpaceOnUse" x1="286.6007" y1="489.8391" x2="286.6007" y2="433.0581">
		<stop  offset="0" style="stop-color:#5B4FB5"/>
		<stop  offset="1" style="stop-color:#A329BC"/>
	</linearGradient>
	<path class="st5" d="M280.5,489.8l-10.3-56.8h9.1l7.2,44.2l7.3-44.2h9.1l-10.5,56.8H280.5z"/>
</g>
<linearGradient id="SVGID_7_" gradientUnits="userSpaceOnUse" x1="204.0673" y1="426.7397" x2="204.0673" y2="132.7049">
	<stop  offset="0" style="stop-color:#634BB4"/>
	<stop  offset="0.3568" style="stop-color:#B41EBB"/>
	<stop  offset="0.6757" style="stop-color:#FD5A77"/>
	<stop  offset="0.9243" style="stop-color:#FBCD76"/>
</linearGradient>
<polygon class="st6" points="99.5,209.7 149.4,164.6 180.3,222.4 226,132.7 308.6,212 204.2,426.7 "/>
<linearGradient id="SVGID_8_" gradientUnits="userSpaceOnUse" x1="204.0673" y1="189.0405" x2="204.0673" y2="48.4448">
	<stop  offset="0" style="stop-color:#F88A71"/>
	<stop  offset="1" style="stop-color:#F8AA6D"/>
</linearGradient>
<polygon class="st7" points="99.5,189 163.9,48.4 189.7,101.9 245.4,48.4 308.6,189 220,103.3 180.3,189 154.5,135.4 "/>
<polygon class="st8" points="226,132.7 204.2,426.7 180.3,222.4 "/>
<linearGradient id="SVGID_9_" gradientUnits="userSpaceOnUse" x1="199.9321" y1="189.0405" x2="199.9321" y2="48.4448">
	<stop  offset="0" style="stop-color:#FD9C76"/>
	<stop  offset="0.4486" style="stop-color:#FDCF77"/>
	<stop  offset="0.8324" style="stop-color:#FDCF77"/>
</linearGradient>
<polygon class="st9" points="189.7,101.9 154.5,135.4 180.3,189 245.4,48.4 "/>
<polygon class="st8" points="99.5,209.7 149.4,164.6 204.2,426.7 "/>
</svg>
